<svg id="Capa_1" enable-background="new 0 0 512 512" height="512" viewBox="0 0 512 512" width="512" xmlns="http://www.w3.org/2000/svg"><g><g><g><path clip-rule="evenodd" d="m142.772 64.547 10.375-52.385h-34.554l-30.472 52.385z" fill="#a0c8ff" fill-rule="evenodd"/></g></g><g><g><path clip-rule="evenodd" d="m199.181 64.547-10.375-52.385h-35.659l-10.375 52.385z" fill="#dfedff" fill-rule="evenodd"/></g></g><g><g><path clip-rule="evenodd" d="m253.832 64.547-30.472-52.385h-34.554l10.375 52.385z" fill="#a0c8ff" fill-rule="evenodd"/></g></g><g><g><path clip-rule="evenodd" d="m199.634 124.698 54.197-60.152h-54.651l-17.773 57.941c6.18.397 12.246 1.134 18.227 2.211z" fill="#dfedff" fill-rule="evenodd"/></g></g><g><g><path clip-rule="evenodd" d="m181.408 122.487 17.773-57.941h-56.408l17.773 57.941c3.458-.227 6.945-.34 10.431-.34 3.514 0 6.973.113 10.431.34z" fill="#a0c8ff" fill-rule="evenodd"/></g></g><g><g><path clip-rule="evenodd" d="m160.545 122.487-17.773-57.941h-54.651l54.226 60.152c5.953-1.077 12.047-1.814 18.198-2.211z" fill="#dfedff" fill-rule="evenodd"/></g></g><g><g><path clip-rule="evenodd" d="m297.654 183.773c-23.867-30.388-58.449-51.959-98.02-59.074-5.981-1.077-12.047-1.814-18.226-2.211-3.458-.227-6.916-.34-10.431-.34-3.487 0-6.973.113-10.431.34-6.151.397-12.245 1.134-18.198 2.211-75.259 13.492-132.348 79.313-132.348 158.429 0 88.924 72.084 161.009 160.976 161.009 15.023 0 29.565-2.069 43.369-5.924 14.343-3.997 27.892-9.95 40.336-17.518 46.346-28.262 77.299-79.314 77.299-137.566 0-21.714-4.309-42.435-12.104-61.342-14.201 2.551-27.496 7.597-39.458 14.684 6.123 14.343 9.496 30.104 9.496 46.659 0 43.569-23.414 81.667-58.336 102.388-11.962 7.087-25.285 12.161-39.458 14.684-6.86 1.247-13.918 1.871-21.146 1.871-65.677 0-118.939-53.235-118.939-118.943 0-65.679 53.262-118.943 118.939-118.943 33.987 0 64.657 14.258 86.313 37.134 12.447-7.599 25.996-13.551 40.367-17.548z" fill="#ffcd69" fill-rule="evenodd"/></g></g><g><g><path clip-rule="evenodd" d="m502 338.857c0-88.924-72.084-160.981-161.005-160.981-15.023 0-29.565 2.041-43.341 5.896-14.371 3.997-27.921 9.95-40.365 17.547-46.346 28.262-77.271 79.286-77.271 137.538 0 21.714 4.309 42.435 12.104 61.342 14.173-2.523 27.496-7.597 39.458-14.684-6.123-14.315-9.524-30.104-9.524-46.659 0-43.569 23.442-81.667 58.364-102.388 11.962-7.087 25.256-12.132 39.458-14.684 6.86-1.219 13.918-1.871 21.118-1.871 65.706 0 118.939 53.263 118.939 118.943s-53.234 118.944-118.94 118.944c-33.987 0-64.629-14.258-86.313-37.106-12.444 7.569-25.993 13.521-40.336 17.518 29.451 37.531 75.258 61.626 126.65 61.626 88.92 0 161.004-72.057 161.004-160.981z" fill="#ffe6b4" fill-rule="evenodd"/></g></g><g><g><path clip-rule="evenodd" d="m486.24 91.901c16.1-15.562 16.554-41.443 1.02-57.544s-41.413-16.554-57.514-1.02l-6.718 6.491-6.718-6.491c-16.1-15.534-41.98-15.08-57.514 1.02-15.562 16.101-15.08 41.981 1.02 57.544l63.211 61.002z" fill="#ff7b79" fill-rule="evenodd"/></g></g><g><g><path d="m416.084 160.099c1.938 1.87 4.441 2.804 6.944 2.804s5.007-.935 6.944-2.804l63.217-61.008c20.093-19.421 20.661-51.575 1.268-71.677-9.368-9.709-21.998-15.189-35.564-15.429-13.466-.239-26.178 4.708-35.864 13.939-9.682-9.229-22.396-14.158-35.864-13.939-13.566.24-26.197 5.719-35.558 15.422-19.416 20.088-18.85 52.245 1.267 71.689zm-50.091-118.798c5.657-5.864 13.301-9.173 21.524-9.318.188-.003.376-.005.564-.005 8.014 0 15.554 3.026 21.28 8.551l6.718 6.491c3.876 3.745 10.022 3.744 13.897 0l6.712-6.486c5.866-5.66 13.625-8.707 21.85-8.551 8.223.146 15.868 3.455 21.524 9.318 11.744 12.173 11.397 31.647-.768 43.405l-56.267 54.301-56.26-54.297c-5.872-5.675-9.187-13.332-9.335-21.56-.149-8.224 2.89-15.982 8.561-21.849z"/></g><g><path d="m340.995 167.876c-13.636 0-26.9 1.614-39.621 4.644-22.106-26.075-50.908-44.544-82.953-53.734l42.839-47.546c2.909-3.229 3.4-7.966 1.215-11.722l-30.471-52.385c-1.791-3.078-5.083-4.972-8.644-4.972h-104.767c-3.561 0-6.854 1.894-8.644 4.972l-30.472 52.385c-2.186 3.757-1.694 8.496 1.217 11.724l42.901 47.589c-71.301 20.596-123.595 86.451-123.595 164.297 0 94.294 76.7 171.009 170.977 171.009 13.655 0 26.938-1.619 39.676-4.657 32.569 38.437 79.698 60.358 130.342 60.358 94.292 0 171.005-76.702 171.005-170.981s-76.712-170.981-171.005-170.981zm-123.387-145.714 18.838 32.385h-29.051l-6.414-32.385zm-11.035 52.384h24.788l-35.495 39.395c-.44-.064-.88-.122-1.321-.182zm-45.212-52.384h19.231l6.414 32.385h-32.059zm24.292 52.384-11.547 37.645c-1.042-.019-2.084-.044-3.129-.044-1.047 0-2.089.021-3.131.04l-11.546-37.641zm-61.308-52.384h16.627l-6.414 32.385h-29.051zm-13.746 52.384h24.78l12.034 39.232c-.428.059-.857.118-1.285.18zm60.378 359.591c-83.249 0-150.977-67.742-150.977-151.009 0-83.251 67.728-150.981 150.977-150.981 41.8 0 80.905 16.923 109.343 46.864-7.378 2.81-14.515 6.112-21.366 9.875-23.914-22.431-54.857-34.7-87.977-34.7-71.098 0-128.939 57.844-128.939 128.943s57.841 128.941 128.939 128.941 128.939-57.843 128.939-128.942c0-14.456-2.355-28.546-7-42.01 6.551-3.236 13.469-5.836 20.678-7.711 5.564 15.94 8.388 32.625 8.388 49.721-.001 83.267-67.741 151.009-151.005 151.009zm7.409-42.324c-2.449.165-4.919.257-7.409.257-60.069 0-108.939-48.871-108.939-108.942s48.87-108.943 108.939-108.943c26.2 0 50.786 9.087 70.395 25.799-43.179 31.065-71.353 81.738-71.353 138.873 0 18.16 2.813 35.917 8.367 52.956zm53.67-52.956c0-35.457 17.029-67.007 43.334-86.913 3.002 10.055 4.527 20.498 4.527 31.184 0 35.45-17.023 66.995-43.32 86.902-3.012-10.059-4.541-20.499-4.541-31.173zm108.939 150.981c-41.803 0-80.893-16.917-109.308-46.847 7.369-2.808 14.498-6.106 21.341-9.865 23.946 22.413 54.886 34.673 87.967 34.673 52.682 0 99.576-31.529 119.469-80.323 2.085-5.114-.371-10.95-5.484-13.036-5.113-2.083-10.95.371-13.035 5.485-16.81 41.231-56.435 67.874-100.949 67.874-26.164 0-50.745-9.079-70.379-25.776 43.187-31.07 71.365-81.752 71.365-138.896 0-18.16-2.813-35.918-8.368-52.958 2.44-.164 4.9-.255 7.382-.255 44.486 0 84.089 26.599 100.894 67.764 2.088 5.114 7.927 7.566 13.038 5.479 5.113-2.087 7.566-7.925 5.479-13.038-19.89-48.723-66.761-80.206-119.411-80.206-71.098 0-128.939 57.844-128.939 128.943 0 14.442 2.361 28.53 7.018 42.001-6.548 3.236-13.464 5.837-20.67 7.713-5.562-15.938-8.385-32.621-8.385-49.714 0-83.251 67.728-150.981 150.977-150.981 83.264 0 151.005 67.73 151.005 150.981s-67.743 150.982-151.007 150.982z"/></g><g><path d="m459.935 328.801c-5.523 0-10 4.477-10 10v.057c0 5.523 4.477 9.972 10 9.972s10-4.505 10-10.028-4.477-10.001-10-10.001z"/></g></g></g></svg>